<svg width="1920" height="1080" viewBox="0 0 1920 1080" fill="none" xmlns="http://www.w3.org/2000/svg">
<rect width="1920" height="1080" fill="#E4FFF8"/>
<g clip-path="url(#clip0_20_2)">
<path d="M391.284 771.289H1530V768.72H391.284C390.575 768.72 390 769.295 390 770.005C390 770.714 390.575 771.289 391.284 771.289Z" fill="#3F3D56"/>
<path d="M911.216 793.118C917.635 823.936 954.223 786.056 954.223 786.056L997.872 780.919C997.872 780.919 1025.47 781.561 1043.45 795.686C1061.42 809.811 1073.61 791.192 1073.61 791.192C1093.86 797.943 1118.67 797.916 1140.16 795.754C1171.12 792.638 1195.93 768.736 1200.19 737.905C1224.19 563.986 1092.23 478.516 1092.23 478.516L1053.72 374.505C1053.72 374.505 1065.91 344.329 1069.76 317.363C1073.61 290.397 1045.37 264.715 1010.71 239.033C995.545 227.798 978.168 228.605 963.418 233.069C946.872 238.076 932.438 248.373 921.773 261.982C912.937 273.256 897.782 289.223 881.124 291.989C875.36 292.939 869.673 295.225 864.358 299.386C858.863 303.687 856.437 310.865 856.36 319.79C855.949 358.775 888.134 405.708 916.351 413.028C951.013 422.016 932.399 507.408 932.399 507.408C875.912 587.022 915.709 675.624 915.709 675.624L905.439 747.533C905.439 747.533 904.797 762.3 911.216 793.118Z" fill="#3F3D56"/>
<path d="M1099.93 627.471L1085.81 803.391C1085.81 803.391 1105.07 852.186 1039.59 849.618C974.122 847.05 1012.64 746.891 1012.64 746.891L1033.18 615.914" fill="#3F3D56"/>
<path d="M1044.47 851C1042.87 851 1041.23 850.967 1039.54 850.901C1025.05 850.333 1014.38 844.993 1007.82 835.032C989.075 806.548 1009.92 750.402 1011.39 746.559L1031.91 615.714C1032.02 615.013 1032.67 614.542 1033.38 614.645C1034.07 614.755 1034.55 615.412 1034.44 616.113L1013.9 747.09C1013.89 747.179 1013.87 747.267 1013.83 747.352C1013.61 747.933 991.686 805.85 1009.97 833.622C1016.04 842.85 1026.03 847.801 1039.64 848.335C1061.02 849.169 1075.4 844.607 1082.39 834.765C1091.54 821.887 1084.69 804.04 1084.62 803.861C1084.54 803.679 1084.52 803.482 1084.53 803.288L1098.65 627.368C1098.71 626.662 1099.32 626.146 1100.04 626.19C1100.74 626.248 1101.27 626.866 1101.21 627.573L1087.11 803.205C1088.05 805.723 1093.89 822.986 1084.5 836.237C1077.54 846.042 1064.09 851 1044.47 851Z" fill="#2F2E41"/>
<path d="M983.108 663.425C983.108 663.425 986.959 826.504 906.081 822.652C825.203 818.8 898.378 767.436 898.378 767.436L905.439 747.533" fill="#3F3D56"/>
<path d="M908.857 824.003C907.918 824.003 906.974 823.98 906.02 823.935C882.927 822.835 869.879 817.66 867.239 808.554C862.484 792.144 893.479 769.361 897.304 766.624L904.229 747.104C904.466 746.434 905.2 746.086 905.868 746.323C906.536 746.56 906.886 747.293 906.649 747.962L899.588 767.865C899.499 768.117 899.334 768.334 899.116 768.487C898.777 768.725 865.253 792.48 869.706 807.839C872.007 815.775 884.266 820.327 906.143 821.369C920.712 822.07 933.483 817.17 944.079 806.822C983.815 768.022 981.849 664.496 981.824 663.455C981.808 662.747 982.368 662.159 983.078 662.141C983.749 662.142 984.374 662.686 984.392 663.395C984.493 667.691 986.41 769.073 945.875 808.658C935.44 818.848 922.997 824.003 908.857 824.003Z" fill="#2F2E41"/>
<path d="M856.36 319.79C865.578 320.894 880.007 320.843 891.959 312.869C904.759 304.329 891.472 296.368 881.124 291.989C875.36 292.939 869.673 295.225 864.358 299.386C858.863 303.687 856.437 310.865 856.36 319.79Z" fill="#2F2E41"/>
<path d="M1005.32 296.701C1005.32 296.701 982.914 239.152 1015 238.347C1047.08 237.542 1072.43 287.412 1072.43 287.412C1072.43 287.412 1152.95 434.238 1042.62 426.32C932.293 418.402 985.016 359.791 985.016 359.791C985.016 359.791 1010.18 328.845 1005.32 296.701Z" fill="#2F2E41"/>
<path d="M1128.23 726.751C1142.43 733.073 1157.28 739.525 1172.82 738.908C1188.36 738.291 1204.71 728.281 1207.13 712.916C1208.38 704.984 1205.9 696.475 1208.94 689.041C1213.02 679.04 1226.2 675.183 1236.44 678.61C1246.69 682.038 1254.21 690.876 1259.61 700.235C1269.7 717.746 1273.75 740.729 1262.92 757.798C1253.54 772.596 1235.75 779.282 1219.19 785.018C1197.14 792.657 1172.52 800.239 1151.16 790.855C1129.67 781.418 1117.97 754.15 1125.92 732.067" fill="#3F3D56"/>
<path d="M1080.82 449.478C1080.82 449.478 1109.07 463.603 1094.94 479.013C1080.82 494.422 993.525 538.081 961.43 531.66C929.336 525.24 921.633 505.978 921.633 500.842C921.633 495.706 924.054 433.573 934.324 436.141C944.595 438.709 1008.93 496.99 1080.82 449.478Z" fill="#6C63FF"/>
</g>
<defs>
<clipPath id="clip0_20_2">
<rect width="1140" height="621" fill="white" transform="translate(390 230)"/>
</clipPath>
</defs>
</svg>
